<svg xmlns="http://www.w3.org/2000/svg" viewBox="0 0 215.564 73.96"><g transform="translate(-120 -45)"><g transform="translate(120 45)"><path fill="#004994" d="M26.144,34.3A13.076,13.076,0,0,1,13.1,21.2H0a26.144,26.144,0,1,0,52.289.046h-13.1A13.067,13.067,0,0,1,26.144,34.3Z" transform="translate(0 -11.425)"/><path fill="#004994" d="M55.043,9.821A9.821,9.821,0,1,1,45.221,0,9.829,9.829,0,0,1,55.043,9.821Z" transform="translate(-19.077)"/></g><g transform="translate(182.202 54.406)"><path fill="#555555" d="M146.52,47.4c-.83.046-1.937.092-3.366.092H134.9V21.3h8.853c3.182,0,4.842.507,6.455,1.891a5.827,5.827,0,0,1,2.167,4.657,5.905,5.905,0,0,1-1.752,4.38,4.681,4.681,0,0,1-2.4,1.337c3.228.922,5.21,3.182,5.21,6.594C153.344,43.755,151.085,47.168,146.52,47.4Zm-1.2-21.3a5.4,5.4,0,0,0-2.167-.323H140.11v5.994h3.135a4.886,4.886,0,0,0,2.259-.323,3.242,3.242,0,0,0,1.337-2.674A2.839,2.839,0,0,0,145.321,26.1Zm.184,10.236a6.291,6.291,0,0,0-2.029-.231H140.2v7.1h3.412a3.694,3.694,0,0,0,2.444-.6,3.939,3.939,0,0,0,1.337-3.043A3.154,3.154,0,0,0,145.505,36.332Z" transform="translate(-134.9 -20.885)"/><path fill="#555555" d="M193.212,47.282c-3.919,0-6.824-1.291-8.945-4.012-1.937-2.444-2.767-5.257-2.767-9.13,0-5.533,1.8-9.453,5.441-11.9A10.752,10.752,0,0,1,193.3,20.4a12.527,12.527,0,0,1,8.346,3l-2.767,3.274a8.325,8.325,0,0,0-5.441-2.029,5.406,5.406,0,0,0-3.781,1.337c-1.752,1.706-2.213,4.519-2.213,8.438,0,3.735.646,6.133,1.937,7.47a5.86,5.86,0,0,0,4.1,1.476,6.24,6.24,0,0,0,3-.646V36.723h-4.012l-.692-4.288h10.144v12.5A16.728,16.728,0,0,1,193.212,47.282Z" transform="translate(-160.013 -20.4)"/><path fill="#555555" d="M265.52,47.4c-.83.046-1.937.092-3.366.092H253.9V21.3h8.853c3.182,0,4.842.507,6.455,1.891a5.827,5.827,0,0,1,2.167,4.657,5.905,5.905,0,0,1-1.752,4.38,4.681,4.681,0,0,1-2.4,1.337c3.228.922,5.21,3.182,5.21,6.594A6.982,6.982,0,0,1,265.52,47.4Zm-1.153-21.3a5.4,5.4,0,0,0-2.167-.323h-3.043v5.994h3.135a4.886,4.886,0,0,0,2.259-.323,3.242,3.242,0,0,0,1.337-2.674A3.007,3.007,0,0,0,264.367,26.1Zm.138,10.236a6.291,6.291,0,0,0-2.029-.231H259.2v7.1h3.412a3.694,3.694,0,0,0,2.444-.6,3.939,3.939,0,0,0,1.337-3.043A3.154,3.154,0,0,0,264.505,36.332Z" transform="translate(-199.029 -20.885)"/><path fill="#555555" d="M313.076,47.336l-1.844-6.225h-7.7l-1.844,6.225H296.2L304.776,21.1h5.672L318.7,47.336Zm-4.565-15.816-1.061-4.611c-.138.6-.784,3.32-1.245,5.026-.507,1.891-.83,3.135-1.383,4.842h5.118C309.756,36.224,308.88,33.319,308.511,31.521Z" transform="translate(-221.825 -20.777)"/><path fill="#555555" d="M367.444,43.018c-.692,2.075-3.228,4.934-8.9,4.934-4.012,0-6.916-1.2-8.392-3.5-.876-1.337-1.153-2.4-1.153-4.934V21.3h5.395V38.5a6.77,6.77,0,0,0,.461,3.135,3.748,3.748,0,0,0,3.6,1.8c2.306,0,3.781-1.153,4.012-3.043a13.5,13.5,0,0,0,.092-2.352V21.3h5.349V38.914C367.859,41.4,367.859,41.911,367.444,43.018Z" transform="translate(-250.279 -20.885)"/></g><g transform="translate(181.695 88.666)"><path fill="#555555" d="M138.32,107.881H135V96.4h3.043a5.355,5.355,0,0,1,3.043.553,2.516,2.516,0,0,1,1.291,2.259,2.461,2.461,0,0,1-1.983,2.49,2.859,2.859,0,0,1,2.444,2.9C142.793,106.913,141.225,107.881,138.32,107.881Zm1.061-9.775a2.921,2.921,0,0,0-1.061-.138h-1.476V101.1h1.614a1.729,1.729,0,0,0,1.429-.415,1.623,1.623,0,0,0,.461-1.153A1.589,1.589,0,0,0,139.38,98.106Zm.231,4.7a3.168,3.168,0,0,0-1.061-.092h-1.706v3.643h1.706c1.476,0,2.075-.83,2.075-1.844A1.569,1.569,0,0,0,139.611,102.809Z" transform="translate(-134.447 -95.616)"/><path fill="#555555" d="M157.075,107.642v.138c0,1.153.415,2.4,2.075,2.4a2.968,2.968,0,0,0,2.075-.83l.692,1.107a4.584,4.584,0,0,1-3.043,1.107c-2.352,0-3.873-1.706-3.873-4.38a4.522,4.522,0,0,1,1.061-3.274,3.522,3.522,0,0,1,4.888-.231c.738.646,1.107,1.706,1.107,3.643v.369h-4.98Zm1.614-3.5c-1.014,0-1.614.83-1.614,2.167h3.089C160.164,104.921,159.611,104.137,158.689,104.137Z" transform="translate(-145.225 -99.065)"/><path fill="#555555" d="M177.9,104.444a2.079,2.079,0,0,0-.507-.138,1.592,1.592,0,0,0-1.568,1.245v5.672h-1.844v-5.948a8.224,8.224,0,0,0-.277-2.259l1.66-.415a3.175,3.175,0,0,1,.323,1.337A2.587,2.587,0,0,1,177.8,102.6a1.473,1.473,0,0,1,.646.138Z" transform="translate(-155.302 -98.957)"/><path fill="#555555" d="M191.672,111.553a1.792,1.792,0,0,1-.738-1.061,3.039,3.039,0,0,1-2.4,1.014,2.561,2.561,0,0,1-2.075-.83,3.05,3.05,0,0,1-.461-1.983v-5.672l1.8-.323v5.625c0,1.061.138,1.8,1.245,1.8a2.083,2.083,0,0,0,1.66-1.107v-5.994l1.752-.323v6.317a2.17,2.17,0,0,0,.507,1.66Z" transform="translate(-161.931 -99.011)"/><path fill="#555555" d="M208.365,96.568a2.244,2.244,0,0,0-1.014-.277c-.646,0-1.014.415-1.014,1.2v1.291h2.213l-.461,1.245h-1.706v7.147h-1.8v-7.147H203.8V98.781h.83c0-.092-.046-.553-.046-1.245A2.3,2.3,0,0,1,207.12,95a3.826,3.826,0,0,1,1.891.461Z" transform="translate(-171.523 -94.862)"/><path fill="#555555" d="M217.428,111.345a6.9,6.9,0,0,1-3.228-.922l.646-1.291a6.114,6.114,0,0,0,2.72.876,1.242,1.242,0,0,0,1.383-1.2c0-.646-.415-.968-1.383-1.2l-1.014-.231a2.324,2.324,0,0,1-2.029-2.305c0-1.568,1.245-2.674,3.135-2.674a5.793,5.793,0,0,1,2.767.738l-.6,1.245a4.217,4.217,0,0,0-2.075-.6c-.784,0-1.291.415-1.291,1.061,0,.507.277.784,1.107,1.014l1.061.277c1.706.415,2.121,1.383,2.121,2.352C220.84,110.193,219.457,111.345,217.428,111.345Z" transform="translate(-177.128 -98.85)"/><path fill="#555555" d="M238.109,104.06a1.374,1.374,0,0,1-.646-.092,2.23,2.23,0,0,1,.553,1.476c0,1.476-1.2,2.582-3.182,2.582-.6.231-1.107.553-1.107.784,0,.323.138.369,2.075.369,1.337,0,2.767.692,2.767,2.4,0,1.8-1.476,2.767-3.735,2.767-2.167,0-3.735-.692-3.735-2.305a2.512,2.512,0,0,1,.184-.876h1.706a1.415,1.415,0,0,0-.138.6c0,.784.646,1.2,1.844,1.2,1.291,0,1.983-.553,1.983-1.291,0-.922-.784-1.153-2.305-1.153-2.259,0-2.767-.461-2.767-1.291s.692-1.153,1.614-1.429a2.348,2.348,0,0,1-1.891-2.352c0-1.706,1.337-2.859,3.366-2.859a24.027,24.027,0,0,1,2.536.415,2.2,2.2,0,0,0,1.522-.6l.83,1.153A2.134,2.134,0,0,1,238.109,104.06Zm-3.458-.138a1.3,1.3,0,0,0-1.429,1.476,1.289,1.289,0,0,0,1.429,1.429,1.27,1.27,0,0,0,1.429-1.429A1.284,1.284,0,0,0,234.65,103.922Z" transform="translate(-186.235 -98.85)"/><path fill="#555555" d="M251.975,107.642v.138c0,1.153.415,2.4,2.075,2.4a2.968,2.968,0,0,0,2.075-.83l.692,1.107a4.584,4.584,0,0,1-3.043,1.107c-2.352,0-3.873-1.706-3.873-4.38a4.522,4.522,0,0,1,1.061-3.274,3.522,3.522,0,0,1,4.888-.231c.738.646,1.107,1.706,1.107,3.643v.369h-4.98Zm1.614-3.5c-1.014,0-1.614.83-1.614,2.167h3.089C255.11,104.921,254.511,104.137,253.589,104.137Z" transform="translate(-196.366 -99.065)"/><path fill="#555555" d="M273.434,111.223v-5.579c0-1.153-.277-1.476-.968-1.476a3.021,3.021,0,0,0-1.844.968v6.086h-1.8v-6.179a4.959,4.959,0,0,0-.323-1.983l1.66-.461a2.553,2.553,0,0,1,.277,1.2,3.748,3.748,0,0,1,2.582-1.153,2.085,2.085,0,0,1,2.213,2.305v6.271Z" transform="translate(-206.39 -98.957)"/><path fill="#555555" d="M290.989,111.507c-2.259,0-3.689-1.706-3.689-4.38s1.429-4.427,3.689-4.427c2.4,0,3.735,1.8,3.735,4.427C294.724,109.847,293.248,111.507,290.989,111.507Zm0-7.424c-1.153,0-1.66.876-1.66,2.9,0,2.444.6,3.135,1.706,3.135,1.061,0,1.66-.876,1.66-3C292.695,104.775,292.049,104.083,290.989,104.083Z" transform="translate(-216.521 -99.011)"/><path fill="#555555" d="M308.928,111.345a6.9,6.9,0,0,1-3.228-.922l.646-1.291a6.114,6.114,0,0,0,2.72.876,1.242,1.242,0,0,0,1.383-1.2c0-.646-.415-.968-1.383-1.2l-1.014-.231a2.324,2.324,0,0,1-2.029-2.305c0-1.568,1.245-2.674,3.135-2.674a5.792,5.792,0,0,1,2.767.738l-.6,1.245a4.217,4.217,0,0,0-2.075-.6c-.784,0-1.291.415-1.291,1.061,0,.507.277.784,1.107,1.014l1.06.277c1.706.415,2.121,1.383,2.121,2.352C312.34,110.193,310.957,111.345,308.928,111.345Z" transform="translate(-226.437 -98.85)"/><path fill="#555555" d="M325.228,111.345a6.9,6.9,0,0,1-3.228-.922l.646-1.291a6.114,6.114,0,0,0,2.721.876,1.242,1.242,0,0,0,1.383-1.2c0-.646-.415-.968-1.383-1.2l-1.014-.231a2.324,2.324,0,0,1-2.029-2.305c0-1.568,1.245-2.674,3.135-2.674a5.792,5.792,0,0,1,2.767.738l-.6,1.245a4.217,4.217,0,0,0-2.075-.6c-.784,0-1.291.415-1.291,1.061,0,.507.277.784,1.107,1.014l1.06.277c1.706.415,2.121,1.383,2.121,2.352C328.64,110.193,327.257,111.345,325.228,111.345Z" transform="translate(-235.221 -98.85)"/><path fill="#555555" d="M341.275,107.642v.138c0,1.153.415,2.4,2.075,2.4a2.968,2.968,0,0,0,2.075-.83l.692,1.107a4.584,4.584,0,0,1-3.043,1.107c-2.352,0-3.873-1.706-3.873-4.38a4.522,4.522,0,0,1,1.061-3.274,3.522,3.522,0,0,1,4.888-.231c.738.646,1.107,1.706,1.107,3.643v.369h-4.98Zm1.568-3.5c-1.014,0-1.614.83-1.614,2.167h3.089C344.364,104.921,343.765,104.137,342.843,104.137Z" transform="translate(-244.49 -99.065)"/><path fill="#555555" d="M362.734,111.223v-5.579c0-1.153-.277-1.476-.968-1.476a3.021,3.021,0,0,0-1.844.968v6.086h-1.8v-6.179a4.959,4.959,0,0,0-.323-1.983l1.66-.461a2.553,2.553,0,0,1,.277,1.2,3.748,3.748,0,0,1,2.582-1.153,2.085,2.085,0,0,1,2.213,2.305v6.271Z" transform="translate(-254.514 -98.957)"/><path fill="#555555" d="M379.328,111.345a6.9,6.9,0,0,1-3.228-.922l.646-1.291a6.114,6.114,0,0,0,2.72.876,1.242,1.242,0,0,0,1.383-1.2c0-.646-.415-.968-1.383-1.2l-1.014-.231a2.324,2.324,0,0,1-2.029-2.305c0-1.568,1.245-2.674,3.135-2.674a5.793,5.793,0,0,1,2.767.738l-.6,1.245a4.217,4.217,0,0,0-2.075-.6c-.784,0-1.291.415-1.291,1.061,0,.507.277.784,1.107,1.014l1.061.277c1.706.415,2.121,1.383,2.121,2.352C382.74,110.193,381.357,111.345,379.328,111.345Z" transform="translate(-264.376 -98.85)"/><path fill="#555555" d="M396.951,111.453c-2.306,0-3.551-1.614-3.551-4.334,0-3.043,1.844-4.519,3.689-4.519a3.023,3.023,0,0,1,2.305.922l-.922,1.2a2.015,2.015,0,0,0-1.429-.646,1.409,1.409,0,0,0-1.337.83,5.93,5.93,0,0,0-.369,2.352,3.5,3.5,0,0,0,.553,2.305,1.527,1.527,0,0,0,1.107.461,2.4,2.4,0,0,0,1.706-.83l.876,1.107A3.08,3.08,0,0,1,396.951,111.453Z" transform="translate(-273.699 -98.957)"/><path fill="#555555" d="M415.118,107.019v-5.672c0-1.061-.369-1.337-1.061-1.337a3.169,3.169,0,0,0-2.029,1.014v6.04h-1.844V97.059A6.888,6.888,0,0,0,410,95.215l1.844-.415a7.586,7.586,0,0,1,.184,1.983v1.8c0,.461-.046.876-.046.968a3.806,3.806,0,0,1,2.582-1.107,2.2,2.2,0,0,1,2.029,1.014,3.067,3.067,0,0,1,.277,1.66v5.948h-1.752Z" transform="translate(-282.645 -94.754)"/><path fill="#555555" d="M435.025,111.645a1.951,1.951,0,0,1-1.153-1.107,2.815,2.815,0,0,1-2.306,1.014c-1.937,0-2.767-1.061-2.767-2.536,0-1.937,1.476-2.9,4.15-2.9h.553v-.461c0-.968-.184-1.476-1.153-1.476a4.931,4.931,0,0,0-2.49.968l-.83-1.291a6.356,6.356,0,0,1,3.55-1.153,2.4,2.4,0,0,1,2.536,1.383,6.675,6.675,0,0,1,.138,2.075l-.046,2.4c0,1.107.092,1.476.738,1.937Zm-1.89-4.334c-1.844,0-2.352.553-2.352,1.614a1.131,1.131,0,0,0,1.153,1.291,1.956,1.956,0,0,0,1.522-.876l.046-1.983C433.411,107.357,433.227,107.311,433.134,107.311Z" transform="translate(-292.776 -99.011)"/><path fill="#555555" d="M452.41,96.5l1.891-.461a21.57,21.57,0,0,0-.138,2.536h2.029l-.461,1.245h-1.522v4.7c0,1.061.231,1.337,1.014,1.337a1.9,1.9,0,0,0,.784-.184l.231,1.107a4.144,4.144,0,0,1-1.66.369,1.977,1.977,0,0,1-2.213-2.167v-5.21h-3.182v7.147h-1.8V99.772H446.6V98.527h.83c0-.277-.046-.968-.046-1.245a2.46,2.46,0,0,1,1.014-2.167,2.734,2.734,0,0,1,1.568-.415,3.826,3.826,0,0,1,1.891.461l-.6,1.153a2.4,2.4,0,0,0-1.014-.277c-.646,0-1.061.415-1.061,1.2v1.291h3.228A7.475,7.475,0,0,1,452.41,96.5Z" transform="translate(-302.368 -94.7)"/><path fill="#555555" d="M139.472,145.319a1.687,1.687,0,0,1-.138-.646,2.815,2.815,0,0,1-2.075.83c-2.121,0-3.458-1.66-3.458-4.288s1.476-4.427,3.5-4.427a2.316,2.316,0,0,1,1.8.784c0-.138-.046-.738-.046-1.383V133.1l1.8.277v9.038a8.551,8.551,0,0,0,.277,2.9h-1.66Zm-.415-6.409a1.97,1.97,0,0,0-1.522-.692c-1.153,0-1.706.922-1.706,2.951,0,1.844.369,2.767,1.752,2.767a1.693,1.693,0,0,0,1.475-.784Z" transform="translate(-133.8 -115.394)"/><path fill="#555555" d="M155.375,145.942v.138c0,1.153.415,2.4,2.075,2.4a2.968,2.968,0,0,0,2.075-.83l.692,1.107a4.584,4.584,0,0,1-3.043,1.107c-2.352,0-3.873-1.706-3.873-4.38a4.522,4.522,0,0,1,1.061-3.274,3.522,3.522,0,0,1,4.888-.231c.738.646,1.107,1.706,1.107,3.643v.369h-4.98Zm1.614-3.55c-1.014,0-1.614.83-1.614,2.167h3.089C158.51,143.221,157.911,142.391,156.989,142.391Z" transform="translate(-144.309 -119.705)"/><path fill="#555555" d="M176.2,142.644a2.079,2.079,0,0,0-.507-.138,1.592,1.592,0,0,0-1.568,1.245v5.672h-1.844v-5.948a8.225,8.225,0,0,0-.277-2.259l1.66-.415a3.175,3.175,0,0,1,.323,1.337A2.587,2.587,0,0,1,176.1,140.8a1.473,1.473,0,0,1,.646.138Z" transform="translate(-154.386 -119.543)"/><path fill="#555555" d="M195.22,146.181H191.9V134.7h3.043a5.355,5.355,0,0,1,3.043.553,2.516,2.516,0,0,1,1.291,2.259,2.461,2.461,0,0,1-1.983,2.49,2.859,2.859,0,0,1,2.444,2.9C199.739,145.213,198.125,146.181,195.22,146.181Zm1.107-9.775a2.921,2.921,0,0,0-1.061-.138h-1.476V139.4H195.4a1.729,1.729,0,0,0,1.429-.415,1.623,1.623,0,0,0,.461-1.153A1.539,1.539,0,0,0,196.327,136.406Zm.231,4.657a3.168,3.168,0,0,0-1.061-.092h-1.706v3.643H195.5c1.476,0,2.075-.83,2.075-1.844A1.642,1.642,0,0,0,196.557,141.063Z" transform="translate(-165.11 -116.256)"/><path fill="#555555" d="M217.825,149.945a1.951,1.951,0,0,1-1.153-1.107,2.815,2.815,0,0,1-2.306,1.014c-1.937,0-2.767-1.061-2.767-2.536,0-1.937,1.476-2.9,4.15-2.9h.553v-.461c0-.968-.184-1.476-1.153-1.476a4.931,4.931,0,0,0-2.49.968l-.83-1.291a6.356,6.356,0,0,1,3.55-1.153,2.4,2.4,0,0,1,2.536,1.383,6.672,6.672,0,0,1,.138,2.075l-.046,2.4c0,1.107.092,1.476.738,1.937Zm-1.891-4.334c-1.844,0-2.352.553-2.352,1.614a1.131,1.131,0,0,0,1.153,1.291,1.956,1.956,0,0,0,1.522-.876l.046-1.983A.9.9,0,0,0,215.934,145.611Z" transform="translate(-175.727 -119.651)"/><path fill="#555555" d="M236.472,149.853a1.792,1.792,0,0,1-.738-1.061,3.039,3.039,0,0,1-2.4,1.014,2.562,2.562,0,0,1-2.075-.83,3.05,3.05,0,0,1-.461-1.983v-5.672l1.8-.323v5.625c0,1.061.138,1.8,1.245,1.8a2.083,2.083,0,0,0,1.66-1.107v-5.994l1.752-.323v6.317a2.17,2.17,0,0,0,.507,1.66Z" transform="translate(-186.073 -119.651)"/><path fill="#555555" d="M256.3,149.676h-1.706l-1.014-3.873c-.231-.876-.507-2.029-.553-2.306h-.046c-.046.231-.184,1.014-.553,2.352l-1.014,3.781h-1.706l-2.305-8.3,1.8-.231.922,4.058c.184.922.415,1.983.415,2.213h.046c.046-.231.184-1.245.461-2.259l1.061-3.873h1.8l.968,3.781c.323,1.2.507,2.213.553,2.4h.046c.046-.231.231-1.383.415-2.259l.876-3.919h1.891Z" transform="translate(-195.019 -119.705)"/><path fill="#555555" d="M275,135.844a1.222,1.222,0,1,1,1.2-1.2A1.221,1.221,0,0,1,275,135.844Zm-.922,9.637v-8.254l1.844-.323v8.576h-1.844Z" transform="translate(-209.246 -115.556)"/><path fill="#555555" d="M287.4,142.644a2.08,2.08,0,0,0-.507-.138,1.592,1.592,0,0,0-1.568,1.245v5.672h-1.844v-5.948a8.224,8.224,0,0,0-.277-2.259l1.66-.415a3.175,3.175,0,0,1,.323,1.337A2.587,2.587,0,0,1,287.3,140.8a1.473,1.473,0,0,1,.646.138Z" transform="translate(-214.312 -119.543)"/><path fill="#555555" d="M297.335,147.059a1.977,1.977,0,0,1-2.213-2.167v-5.21H294.2v-1.245h.922a15.282,15.282,0,0,1,.092-2.075l1.891-.461a21.569,21.569,0,0,0-.138,2.536H299l-.461,1.245h-1.522v4.7c0,1.061.231,1.337,1.014,1.337a1.9,1.9,0,0,0,.784-.184l.231,1.107A4.188,4.188,0,0,1,297.335,147.059Z" transform="translate(-220.24 -116.903)"/><path fill="#555555" d="M309.328,149.645a6.9,6.9,0,0,1-3.228-.922l.646-1.291a6.114,6.114,0,0,0,2.72.876,1.242,1.242,0,0,0,1.383-1.2c0-.646-.415-.968-1.383-1.2l-1.014-.231a2.324,2.324,0,0,1-2.029-2.305c0-1.568,1.245-2.674,3.135-2.674a5.792,5.792,0,0,1,2.767.738l-.6,1.245a4.217,4.217,0,0,0-2.075-.6c-.784,0-1.291.415-1.291,1.061,0,.507.277.784,1.107,1.014l1.061.277c1.706.415,2.121,1.383,2.121,2.352C312.74,148.493,311.357,149.645,309.328,149.645Z" transform="translate(-226.653 -119.489)"/><path fill="#555555" d="M326.951,149.753c-2.306,0-3.551-1.614-3.551-4.334,0-3.043,1.844-4.519,3.689-4.519a3.023,3.023,0,0,1,2.306.922l-.922,1.2a2.015,2.015,0,0,0-1.429-.646,1.409,1.409,0,0,0-1.337.83,5.93,5.93,0,0,0-.369,2.352,3.5,3.5,0,0,0,.553,2.305,1.527,1.527,0,0,0,1.107.461,2.4,2.4,0,0,0,1.706-.83l.876,1.107A3.207,3.207,0,0,1,326.951,149.753Z" transform="translate(-235.976 -119.597)"/><path fill="#555555" d="M345.118,145.265v-5.718c0-1.061-.369-1.337-1.061-1.337a3.169,3.169,0,0,0-2.029,1.014v6.04h-1.844V135.259a6.886,6.886,0,0,0-.184-1.844l1.844-.415a7.587,7.587,0,0,1,.184,1.983v1.8c0,.461-.046.876-.046.968a3.806,3.806,0,0,1,2.582-1.107,2.2,2.2,0,0,1,2.029,1.014,3.067,3.067,0,0,1,.277,1.66v5.948h-1.752Z" transform="translate(-244.922 -115.34)"/><path fill="#555555" d="M364.925,149.945a1.951,1.951,0,0,1-1.153-1.107,2.815,2.815,0,0,1-2.305,1.014c-1.937,0-2.767-1.061-2.767-2.536,0-1.937,1.476-2.9,4.15-2.9h.553v-.461c0-.968-.184-1.476-1.153-1.476a4.931,4.931,0,0,0-2.49.968l-.83-1.291a6.356,6.356,0,0,1,3.55-1.153,2.4,2.4,0,0,1,2.536,1.383,6.673,6.673,0,0,1,.138,2.075l-.046,2.4c0,1.107.092,1.476.738,1.937Zm-1.891-4.334c-1.844,0-2.352.553-2.352,1.614a1.131,1.131,0,0,0,1.153,1.291,1.956,1.956,0,0,0,1.522-.876l.046-1.983A.793.793,0,0,0,363.034,145.611Z" transform="translate(-254.999 -119.651)"/><path fill="#555555" d="M382.41,134.8l1.89-.461a21.576,21.576,0,0,0-.138,2.536h2.029l-.461,1.245h-1.522v4.7c0,1.061.231,1.337,1.014,1.337a1.9,1.9,0,0,0,.784-.184l.231,1.107a4.145,4.145,0,0,1-1.66.369,1.977,1.977,0,0,1-2.213-2.167v-5.21h-3.182v7.147h-1.8v-7.147H376.6v-1.245h.83c0-.277-.046-.968-.046-1.245a2.46,2.46,0,0,1,1.014-2.167,2.734,2.734,0,0,1,1.568-.415,3.826,3.826,0,0,1,1.89.461l-.6,1.153a2.4,2.4,0,0,0-1.014-.277c-.646,0-1.06.415-1.06,1.2v1.291h3.228A7.471,7.471,0,0,1,382.41,134.8Z" transform="translate(-264.645 -115.34)"/></g></g></svg>
