<?xml version="1.0" encoding="UTF-8"?>
<svg xmlns="http://www.w3.org/2000/svg" id="Ebene_1" viewBox="0 0 212.6 57.87">
  <defs>
    <style>.cls-1{fill:#ff7d20;}.cls-2{fill:#3a5896;}</style>
  </defs>
  <path class="cls-2" d="m142.59,39.86h10.09v-2.57h-6.46v-2.82h5.94v-2.53h-5.94v-2.75h6.31v-2.53h-9.94v13.21Zm-9.39-10.78h1.61c1.06,0,2.37.09,2.37,1.71,0,1.78-1.45,1.78-2.35,1.78h-1.63v-3.48Zm-3.69,10.78h3.69v-4.77l2.39-.02c.71,0,2.31,0,3.34-.57.51-.28,2-1.28,2-3.61,0-1.72-.75-2.92-1.87-3.59-1.08-.68-2.42-.68-3.45-.68h-6.09v13.24Zm-9.46-10.78h1.61c1.06,0,2.37.09,2.37,1.71,0,1.78-1.45,1.78-2.35,1.78h-1.63v-3.48Zm-3.69,10.78h3.69v-4.77l2.38-.02c.72,0,2.31,0,3.34-.57.51-.28,2-1.28,2-3.61,0-1.72-.75-2.92-1.87-3.59-1.08-.68-2.42-.68-3.45-.68h-6.09v13.24Zm-6.26,0h3.78v-13.24h-3.78v13.24Zm-10.99,0h9.67v-2.6h-5.94v-10.64h-3.72v13.24Zm-6.84-3.74h5.21v-2.18h-5.21v2.18Zm-1.58-5.54c-.02-.64-.04-1.74-.99-2.75-1.06-1.1-2.77-1.54-4.84-1.54-1.6,0-3.91.28-5.48,1.76-1.5,1.45-1.98,3.67-1.98,5.26,0,2.11.77,4.2,2.46,5.47,1.54,1.16,3.52,1.38,4.95,1.38,1.96,0,3.92-.28,5.85-.73v-7.08h-6.25v2.51h2.81v2.57c-.68.13-1.36.22-2.04.22-2.22,0-3.92-1.3-3.92-4.4,0-2.22.92-4.42,3.43-4.42,1.01,0,2.09.39,2.29,1.76h3.72Zm-24.89,9.28h10.09v-2.57h-6.46v-2.82h5.94v-2.53h-5.94v-2.75h6.31v-2.53h-9.94v13.21Zm-17.11,0h4.38l2.44-9.81,2.29,9.81h4.4l2.28-13.24h-3.32l-1.23,9.58-1.96-9.58h-4.49l-2.17,9.65-1.23-9.65h-3.65l2.26,13.24Zm-11.19,0h9.67v-2.6h-5.94v-10.64h-3.72v13.24Zm-11.11,0h9.67v-2.6h-5.94v-10.64h-3.72v13.24Zm-12.11,0h10.09v-2.57h-6.46v-2.82h5.94v-2.53h-5.94v-2.75h6.31v-2.53h-9.94v13.21ZM.04,39.86h3.69v-5.36h4.44v5.36h3.72v-13.24h-3.72v5.17H3.74v-5.17H.04v13.24Z"></path>
  <path class="cls-2" d="m148.38,24.84h1.74v-6.73h2.4v-1.34h-6.54v1.34h2.4v6.73Zm-7.87,0h1.73v-3.43h3.23v-1.34h-3.23v-1.98h3.47v-1.29h-5.2v8.05Zm-5.96-3.04l1.19-3.43,1.11,3.43h-2.31Zm.21-5.02l-2.91,8.06h1.65l.6-1.74h3.19l.58,1.74h1.74l-2.8-8.06h-2.05Zm-10.16,8.06h1.73v-3.54h3.07v3.54h1.73v-8.06h-1.75v3.22h-3.05v-3.22h-1.73v8.06Zm-1-5.43c0-1.61-1.24-2.68-3-2.68-2.26,0-3.69,1.7-3.69,4.25,0,2,.9,4.05,3.68,4.05.74,0,1.64-.17,2.35-.9.65-.67.69-1.42.73-1.9h-1.82c-.03,1.07-.73,1.53-1.45,1.53-1.68,0-1.68-2.29-1.68-2.77,0-1.66.54-3,1.82-3,1.17,0,1.27,1.14,1.3,1.42h1.76Zm-14.01,2.85c.01.78.03,2.77,3.12,2.77,2.23,0,3.43-1.17,3.43-2.62,0-1.57-1.37-1.95-2.77-2.29-1.16-.29-1.75-.42-1.75-1.17,0-.66.52-1.09,1.33-1.09,1.19,0,1.28.95,1.31,1.23h1.66c0-.27,0-.92-.46-1.5-.6-.76-1.6-.95-2.43-.95-2.24,0-3.19,1.17-3.19,2.5,0,1.39,1.05,1.96,2.97,2.44,1.03.24,1.53.37,1.53,1.08s-.59,1.13-1.53,1.13c-1.48,0-1.46-1.15-1.46-1.53h-1.76Zm-5.23-4.22h1.16c.55,0,.87,0,1.14.19.16.1.42.36.42.9s-.32.85-.45.94c-.28.22-.68.22-.88.22h-1.39v-2.25Zm-1.71,6.79h1.76v-3.26h1.52c.29,0,.71,0,.87.46.11.31.36,2.35.43,2.8h1.91c-.09-.13-.16-.22-.24-.58-.06-.22-.12-.61-.25-1.56-.15-1.05-.23-1.74-1.45-1.85.39-.11,1.68-.47,1.68-1.97,0-.52-.2-1.12-.7-1.55-.65-.56-1.55-.56-2.44-.55h-3.09v8.06Zm-6.55,0h5.52v-1.34h-3.79v-2.17h3.44v-1.32h-3.44v-1.92h3.67v-1.32h-5.4v8.06Zm-7.41,0h1.73v-4.1l2.82,4.1h2.15l-3.21-4.45,2.96-3.61h-2.02l-2.7,3.49v-3.47h-1.73v8.04Zm-5.7-6.79h1.16c.55,0,.87,0,1.14.19.16.1.42.36.42.9s-.32.85-.45.94c-.28.22-.68.22-.88.22h-1.39v-2.25Zm-1.71,6.79h1.76v-3.26h1.52c.29,0,.71,0,.87.46.11.31.36,2.35.43,2.8h1.91c-.09-.13-.16-.22-.25-.58-.05-.22-.12-.61-.24-1.56-.14-1.05-.23-1.74-1.45-1.85.39-.11,1.68-.47,1.68-1.97,0-.52-.2-1.12-.7-1.55-.65-.56-1.55-.56-2.44-.55h-3.09v8.06Zm-6.55,0h5.52v-1.34h-3.79v-2.17h3.43v-1.32h-3.43v-1.92h3.67v-1.32h-5.4v8.06Zm-11.7-8.03l1.96,8.05h1.96l1.57-6.16,1.46,6.16h1.92l2.05-8.05h-1.65l-1.31,6.03-1.42-6.03h-1.95l-1.57,6.03-1.25-6.03h-1.78Zm-5.19,1.29c.99-.04,1.45.01,1.81.11,1.08.3,1.47,1.35,1.47,2.49,0,.39-.04,1.59-.73,2.27-.5.5-1.14.56-1.87.56-.2,0-.49-.01-.68-.02v-5.41Zm-1.75,6.74h2.51c.81,0,1.15-.03,1.45-.09,1.53-.28,2.86-1.57,2.86-4.05,0-1.15-.36-2.42-1.37-3.17-.97-.71-2.33-.72-2.78-.72h-2.67s0,8.03,0,8.03Zm-8.49,0h1.63v-6.69l3.12,6.69h2.38v-8.06h-1.61v6.35l-3.02-6.35h-2.5v8.06Zm-5.99-3.04l1.19-3.43,1.11,3.43h-2.31Zm.21-5.02l-2.91,8.06h1.65l.6-1.74h3.19l.58,1.74h1.74l-2.8-8.06h-2.05Zm-10.16,8.06h1.73v-3.54h3.07v3.54h1.73v-8.06h-1.75v3.22h-3.04v-3.22h-1.73v8.06Zm-7.68-2.58c.01.78.03,2.77,3.12,2.77,2.23,0,3.43-1.17,3.43-2.62,0-1.57-1.37-1.95-2.77-2.29-1.16-.29-1.75-.42-1.75-1.17,0-.66.52-1.09,1.33-1.09,1.19,0,1.28.95,1.3,1.23h1.66c0-.27,0-.92-.46-1.5-.6-.76-1.6-.95-2.43-.95-2.24,0-3.19,1.17-3.19,2.5,0,1.39,1.05,1.96,2.97,2.44,1.03.24,1.53.37,1.53,1.08s-.59,1.13-1.53,1.13c-1.48,0-1.46-1.15-1.46-1.53h-1.76Zm-2.71,2.58h1.73v-8.09h-1.73v8.09Zm-6.55,0h5.52v-1.34h-3.79v-2.17h3.43v-1.32h-3.43v-1.92h3.67v-1.32h-5.4v8.06Zm-5.78-6.79h1.16c.55,0,.87,0,1.14.19.16.1.42.36.42.9s-.32.85-.45.94c-.28.22-.68.22-.88.22h-1.39v-2.25Zm-1.71,6.79h1.76v-3.26h1.52c.29,0,.71,0,.87.46.11.31.36,2.35.43,2.8h1.91c-.09-.13-.16-.22-.25-.58-.06-.22-.12-.61-.24-1.56-.14-1.05-.23-1.74-1.45-1.85.39-.11,1.68-.47,1.68-1.97,0-.52-.2-1.12-.7-1.55-.65-.56-1.55-.56-2.44-.55h-3.09v8.06Zm-7.25,0h1.73v-4.1l2.82,4.1h2.15l-3.21-4.45,2.96-3.61h-2.02l-2.7,3.49v-3.47H0v8.04Z"></path>
  <polygon class="cls-1" points="196.7 .39 196.7 24.37 178.97 42.1 155.28 42.1 171.54 57.87 196.25 57.87 212.6 41.6 212.6 16.94 196.7 .39"></polygon>
  <polygon class="cls-1" points="173.49 37.58 154.76 18.85 154.76 40.07 173.49 40.07 173.49 37.58"></polygon>
  <polygon class="cls-1" points="194.38 18.92 194.38 0 173.16 0 192.08 18.92 194.38 18.92"></polygon>
  <rect class="cls-1" x="161.66" y="4.69" width="22.04" height="27.12" transform="translate(37.67 127.45) rotate(-45)"></rect>
</svg>
